<svg width="70" height="50" viewBox="0 0 70 50" fill="none" xmlns="http://www.w3.org/2000/svg">
<rect width="70" height="50" rx="4" fill="#003D79"/>
<path fill-rule="evenodd" clip-rule="evenodd" d="M5.06316 26.4813C5.06316 25.5846 5.04737 24.8321 5 24.1612H6.64337L6.72042 25.3139H6.76653C7.139 24.7048 7.82016 23.9844 9.09074 23.9844C10.0825 23.9844 10.8571 24.5619 11.1819 25.4258H11.2138C11.4776 24.9938 11.7865 24.6739 12.1425 24.449C12.5613 24.1453 13.0417 23.9844 13.6615 23.9844C14.9161 23.9844 16.1857 24.8644 16.1857 27.3614V31.9539H14.3268V27.6499C14.3268 26.3538 13.8937 25.5846 12.9802 25.5846C12.3284 25.5846 11.8476 26.0656 11.6475 26.626C11.6005 26.8175 11.5541 27.0577 11.5541 27.2801V31.9539H9.69453V27.4411C9.69453 26.3538 9.2769 25.5846 8.39363 25.5846C7.68089 25.5846 7.20121 26.1617 7.03037 26.7046C6.95237 26.8979 6.92111 27.1213 6.92111 27.3449V31.9539H5.06316V26.4813Z" fill="white"/>
<path fill-rule="evenodd" clip-rule="evenodd" d="M23.4281 30.0817C23.4281 30.7855 23.4591 31.4724 23.5366 31.9539H21.8163L21.6929 31.09H21.6458C21.1813 31.6986 20.3912 32.13 19.4152 32.13C17.8966 32.13 17.0449 30.9947 17.0449 29.8099C17.0449 27.8409 18.733 26.8496 21.5219 26.8654V26.7369C21.5219 26.2246 21.3202 25.377 19.9881 25.377C19.2441 25.377 18.4691 25.6173 17.9582 25.9527L17.5859 24.6736C18.1447 24.3208 19.1216 23.9844 20.3135 23.9844C22.7313 23.9844 23.4281 25.5696 23.4281 27.2651V30.0817ZM21.5683 28.1457C20.2207 28.1134 18.9351 28.4174 18.9351 29.6018C18.9351 30.3691 19.4152 30.7219 20.0197 30.7219C20.7779 30.7219 21.3365 30.2096 21.5064 29.6497C21.5525 29.5057 21.5683 29.3451 21.5683 29.2175V28.1457Z" fill="white"/>
<path fill-rule="evenodd" clip-rule="evenodd" d="M24.7458 26.4813C24.7458 25.5846 24.7288 24.8321 24.6836 24.1612H26.3554L26.4489 25.3292H26.4946C26.8204 24.7219 27.6414 23.9844 28.8961 23.9844C30.2134 23.9844 31.5766 24.8644 31.5766 27.3294V31.9539H29.6713V27.554C29.6713 26.433 29.2685 25.5846 28.2304 25.5846C27.4712 25.5846 26.9446 26.1449 26.7427 26.7372C26.6818 26.9137 26.6656 27.1542 26.6656 27.3767V31.9539H24.7458V26.4813Z" fill="white"/>
<path fill-rule="evenodd" clip-rule="evenodd" d="M39.838 21.0298V29.7609C39.838 30.5609 39.8685 31.4266 39.8996 31.954H38.1953L38.119 30.722H38.0874C37.6379 31.5866 36.7224 32.1302 35.6236 32.1302C33.8273 32.1302 32.4015 30.5462 32.4015 28.1458C32.3857 25.5372 33.9659 23.9845 35.7784 23.9845C36.8161 23.9845 37.5604 24.4332 37.9006 25.0097H37.9321V21.0298H39.838ZM37.9321 27.4085C37.9321 27.2501 37.9161 27.0572 37.8863 26.8977C37.7156 26.1295 37.111 25.505 36.2434 25.505C35.0195 25.505 34.3377 26.6258 34.3377 28.0821C34.3377 29.5059 35.0195 30.5462 36.2279 30.5462C37.0022 30.5462 37.6843 30.0023 37.87 29.1544C37.9161 28.9776 37.9321 28.7858 37.9321 28.577V27.4085Z" fill="white"/>
<path fill-rule="evenodd" clip-rule="evenodd" d="M41.1846 31.9538H43.1076V24.1616H41.1846V31.9538Z" fill="white"/>
<path fill-rule="evenodd" clip-rule="evenodd" d="M44.4549 26.6728C44.4549 25.6171 44.4388 24.864 44.3926 24.1606H46.0506L46.1113 25.6483H46.1755C46.5467 24.5442 47.43 24.1606 48.2353 24.1606C48.4208 24.1606 48.5291 24.1278 48.6845 24.1606V25.8893C48.5291 25.8574 48.3591 25.8254 48.1266 25.8254C47.2127 25.8254 46.5925 26.4329 46.4223 27.3125C46.3922 27.4886 46.3609 27.6975 46.3609 27.9226V31.9538H44.4549V26.6728Z" fill="white"/>
<path fill-rule="evenodd" clip-rule="evenodd" d="M49.5674 31.9538H51.4875V24.1616H49.5674V31.9538Z" fill="white"/>
<path fill-rule="evenodd" clip-rule="evenodd" d="M49.1132 14.7396C47.9598 15.4295 45.2393 17.0412 44.2237 17.6414C43.6047 17.9671 42.1712 18.1093 41.3604 16.98C41.3459 16.9597 40.282 15.5866 40.2386 15.5349C40.2081 15.4984 39.5203 14.4446 37.9878 14.4117C37.7614 14.4061 36.6356 14.3999 35.5371 15.0448C34.077 15.9064 30.6814 17.9116 30.6814 17.9116C30.6804 17.9116 30.6804 17.9134 30.6787 17.9134C29.2829 18.7383 28.1953 19.3806 28.1953 19.3806L29.4803 21.0107C30.0814 21.7816 31.4369 22.3781 32.6124 21.681C32.6124 21.681 36.9559 19.083 36.9719 19.0755C38.8504 18.0113 40.2998 18.0113 41.2619 18.4073C42.1254 18.7842 42.8767 19.7233 42.8767 19.7233C42.8767 19.7233 43.8585 20.98 44.0317 21.1999C44.5903 21.9102 45.5149 21.6311 45.5149 21.6311C45.5149 21.6311 45.8576 21.591 46.3741 21.2743C46.3741 21.2743 50.5813 18.7545 50.584 18.7537C51.9199 17.9441 53.1452 17.7929 53.7714 17.8524C55.7328 18.0366 56.3421 19.4519 57.1925 20.4392C57.6934 21.02 58.1453 21.3498 58.8364 21.3331C59.2905 21.3232 59.8035 21.0388 59.8791 20.9874L64.9172 17.9842C64.9172 17.9842 64.4003 17.18 63.3416 15.9288C62.3941 14.8124 61.3876 15.3175 60.5852 15.728C60.2481 15.9002 59.0266 16.7395 57.8165 17.325C56.9543 17.742 55.7157 17.6166 55.0369 16.7502C54.9964 16.6976 53.8982 15.3243 53.7828 15.1554C53.3396 14.5819 52.4748 14.0684 51.3665 14.0684C50.6926 14.0684 49.9279 14.2582 49.1132 14.7396Z" fill="url(#paint0_linear_73_9665)"/>
<defs>
<linearGradient id="paint0_linear_73_9665" x1="28.1953" y1="21.9897" x2="64.9172" y2="21.9897" gradientUnits="userSpaceOnUse">
<stop stop-color="#FFCA06"/>
<stop offset="0.330844" stop-color="#FBAA18"/>
<stop offset="0.694742" stop-color="#FFC907"/>
<stop offset="1" stop-color="#FAA619"/>
</linearGradient>
</defs>
</svg>
